<svg width="16" height="17" viewBox="0 0 16 17" fill="none" xmlns="http://www.w3.org/2000/svg">
<path d="M8.00008 15.7223C12.0435 15.7223 15.3334 12.4327 15.3334 8.389C15.3334 7.69105 15.236 7.00325 15.0431 6.34455C14.948 6.02064 14.6098 5.83459 14.285 5.92963C13.9608 6.02437 13.7753 6.3638 13.8701 6.6877C14.0299 7.23496 14.1112 7.80758 14.1112 8.389C14.1112 11.7586 11.3697 14.5001 8.00008 14.5001C4.63047 14.5001 1.88897 11.7586 1.88897 8.389C1.88897 5.01938 4.63047 2.27789 8.00008 2.27789C9.22469 2.27789 10.4029 2.63596 11.4073 3.31316C11.6869 3.5019 12.067 3.42775 12.2555 3.14815C12.4441 2.86826 12.3705 2.4884 12.0906 2.29982C10.8836 1.48595 9.46922 1.05566 8.00008 1.05566C3.95669 1.05566 0.666748 4.34531 0.666748 8.389C0.666748 12.4327 3.95669 15.7223 8.00008 15.7223Z" fill="#FF3F3A"/>
<path d="M14.8619 1.91752L7.99996 8.77917L5.80465 6.58419C5.54423 6.32393 5.12235 6.32393 4.86194 6.58419C4.60168 6.8446 4.60168 7.26648 4.86194 7.5269L7.5286 10.1936C7.65898 10.3239 7.82922 10.3889 7.99996 10.3889C8.17069 10.3889 8.34094 10.3239 8.47131 10.1936L15.8046 2.86023C16.0649 2.59981 16.0649 2.17794 15.8046 1.91752C15.5442 1.65727 15.1224 1.65727 14.8619 1.91752Z" fill="#FF3F3A"/>
</svg>
