<svg width="216" height="213" viewBox="0 0 216 213" fill="none" xmlns="http://www.w3.org/2000/svg">
<g opacity="0.8" clip-path="url(#clip0_2234_9590)">
<path d="M34.0829 151.335C35.2502 152.232 35.4507 153.783 34.5507 154.954C33.6506 156.126 32.1002 156.331 30.9329 155.434C29.7656 154.537 29.5651 152.986 30.4652 151.815C31.3652 150.644 33.0129 150.513 34.0829 151.335Z" fill="#FFCF2D"/>
<path d="M47.5082 133.864C48.6755 134.761 48.876 136.312 47.9759 137.484C47.0759 138.655 45.5255 138.86 44.3582 137.963C43.1909 137.066 42.9904 135.515 43.8905 134.344C44.7155 133.27 46.4382 133.042 47.5082 133.864Z" fill="#FFCF2D"/>
<path d="M60.8583 116.492C62.0256 117.389 62.2261 118.94 61.326 120.112C60.426 121.283 58.8756 121.488 57.7083 120.591C56.541 119.694 56.3405 118.143 57.2406 116.972C58.1406 115.801 59.7883 115.67 60.8583 116.492Z" fill="#FFCF2D"/>
<path d="M74.2836 99.0225C75.4509 99.9195 75.6514 101.471 74.7513 102.642C73.8513 103.813 72.3008 104.019 71.1336 103.122C69.9663 102.225 69.7658 100.673 70.6659 99.5022C71.5659 98.3311 73.2136 98.2002 74.2836 99.0225Z" fill="#FFCF2D"/>
<path d="M87.7089 81.5528C88.8762 82.4498 89.0766 84.001 88.1766 85.1721C87.2766 86.3433 85.7261 86.5489 84.5589 85.6518C83.3916 84.7548 83.1911 83.2037 84.0911 82.0325C84.9162 80.9589 86.6389 80.7305 87.7089 81.5528Z" fill="#FFCF2D"/>
<path d="M101.134 64.0831C102.301 64.9801 102.502 66.5312 101.602 67.7024C100.702 68.8736 99.1514 69.0792 97.9841 68.1821C96.8169 67.2851 96.6164 65.7339 97.5164 64.5628C98.4165 63.3916 100.064 63.2608 101.134 64.0831Z" fill="#FFCF2D"/>
<path d="M114.484 46.711C115.652 47.608 115.852 49.1592 114.952 50.3303C114.052 51.5015 112.502 51.7071 111.334 50.81C110.167 49.913 109.967 48.3619 110.867 47.1907C111.767 46.0195 113.414 45.8887 114.484 46.711Z" fill="#FFCF2D"/>
<path d="M127.91 29.2413C129.077 30.1383 129.277 31.6894 128.377 32.8606C127.477 34.0318 125.927 34.2374 124.76 33.3403C123.592 32.4433 123.392 30.8921 124.292 29.721C125.192 28.5498 126.84 28.419 127.91 29.2413Z" fill="#FFCF2D"/>
<path d="M141.335 11.7715C142.502 12.6686 142.703 14.2197 141.803 15.3909C140.903 16.562 139.352 16.7676 138.185 15.8706C137.018 14.9736 136.817 13.4224 137.717 12.2513C138.542 11.1777 140.265 10.9493 141.335 11.7715Z" fill="#FFCF2D"/>
<path d="M48.5766 162.473C49.7439 163.37 49.9443 164.921 49.0443 166.092C48.1443 167.263 46.5938 167.469 45.4265 166.572C44.2593 165.675 44.0588 164.124 44.9588 162.952C45.8588 161.781 47.4093 161.576 48.5766 162.473Z" fill="#FFCF2D"/>
<path d="M62.0019 145.003C63.1692 145.9 63.3696 147.451 62.4696 148.622C61.5696 149.793 60.0191 149.999 58.8518 149.102C57.6845 148.205 57.4841 146.654 58.3841 145.483C59.2091 144.409 60.8346 144.106 62.0019 145.003Z" fill="#FFCF2D"/>
<path d="M75.352 127.631C76.5193 128.528 76.7197 130.079 75.8197 131.25C74.9197 132.421 73.3692 132.627 72.2019 131.73C71.0346 130.833 70.8342 129.282 71.7342 128.111C72.6342 126.939 74.1847 126.734 75.352 127.631Z" fill="#FFCF2D"/>
<path d="M88.7773 110.161C89.9446 111.058 90.145 112.609 89.245 113.781C88.345 114.952 86.7945 115.157 85.6272 114.26C84.4599 113.363 84.2595 111.812 85.1595 110.641C86.0595 109.47 87.61 109.264 88.7773 110.161Z" fill="#FFCF2D"/>
<path d="M102.203 92.6905C103.37 93.5875 103.57 95.1387 102.67 96.3098C101.77 97.481 100.22 97.6866 99.0525 96.7895C97.8852 95.8925 97.6848 94.3414 98.5848 93.1702C99.4098 92.0966 101.035 91.7934 102.203 92.6905Z" fill="#FFCF2D"/>
<path d="M115.628 75.2208C116.795 76.1178 116.996 77.6689 116.096 78.8401C115.196 80.0113 113.645 80.2169 112.478 79.3198C111.311 78.4228 111.11 76.8716 112.01 75.7005C112.91 74.5293 114.461 74.3237 115.628 75.2208Z" fill="#FFCF2D"/>
<path d="M128.978 57.8487C130.145 58.7457 130.346 60.2969 129.446 61.468C128.546 62.6392 126.995 62.8448 125.828 61.9477C124.661 61.0507 124.46 59.4996 125.36 58.3284C126.26 57.1572 127.811 56.9517 128.978 57.8487Z" fill="#FFCF2D"/>
<path d="M142.403 40.3789C143.571 41.276 143.771 42.8271 142.871 43.9983C141.971 45.1695 140.42 45.3751 139.253 44.478C138.086 43.581 137.885 42.0298 138.785 40.8587C139.685 39.6875 141.236 39.4819 142.403 40.3789Z" fill="#FFCF2D"/>
<path d="M155.829 22.9092C156.996 23.8063 157.196 25.3574 156.296 26.5286C155.396 27.6997 153.846 27.9053 152.678 27.0083C151.511 26.1113 151.311 24.5601 152.211 23.3889C153.036 22.3154 154.661 22.0122 155.829 22.9092Z" fill="#FFCF2D"/>
<path d="M5.1928 129.133C6.36008 130.03 6.56053 131.581 5.66052 132.752C4.7605 133.923 3.21003 134.129 2.04275 133.232C0.875462 132.335 0.675012 130.784 1.57503 129.613C2.47504 128.441 4.02552 128.236 5.1928 129.133Z" fill="#FFCF2D"/>
<path d="M18.6181 111.663C19.7854 112.56 19.9858 114.111 19.0858 115.282C18.1858 116.454 16.6353 116.659 15.468 115.762C14.3008 114.865 14.1003 113.314 15.0003 112.143C15.8253 111.069 17.4508 110.766 18.6181 111.663Z" fill="#FFCF2D"/>
<path d="M31.9682 94.2911C33.1355 95.1881 33.3359 96.7392 32.4359 97.9104C31.5359 99.0816 29.9854 99.2872 28.8181 98.3901C27.6509 97.4931 27.5254 95.8443 28.3504 94.7708C29.2504 93.5996 30.8009 93.394 31.9682 94.2911Z" fill="#FFCF2D"/>
<path d="M45.3935 76.8213C46.5608 77.7184 46.7612 79.2695 45.8612 80.4407C44.9612 81.6118 43.4107 81.8174 42.2434 80.9204C41.0761 80.0234 40.9507 78.3746 41.7757 77.3011C42.6007 76.2275 44.2262 75.9243 45.3935 76.8213Z" fill="#FFCF2D"/>
<path d="M58.8188 59.3516C59.9861 60.2486 60.1865 61.7998 59.2865 62.971C58.3865 64.1421 56.836 64.3477 55.6687 63.4507C54.5014 62.5536 54.301 61.0025 55.201 59.8313C56.026 58.7578 57.6515 58.4546 58.8188 59.3516Z" fill="#FFCF2D"/>
<path d="M72.2441 41.8809C73.4114 42.7779 73.6118 44.3291 72.7118 45.5002C71.8118 46.6714 70.2613 46.877 69.094 45.98C67.9267 45.0829 67.7263 43.5318 68.6263 42.3606C69.5263 41.1895 71.0768 40.9839 72.2441 41.8809Z" fill="#FFCF2D"/>
<path d="M85.5942 24.5088C86.7614 25.4059 86.9619 26.957 86.0619 28.1282C85.1619 29.2993 83.6114 29.5049 82.4441 28.6079C81.2768 27.7109 81.0764 26.1597 81.9764 24.9886C82.8764 23.8174 84.4269 23.6118 85.5942 24.5088Z" fill="#FFCF2D"/>
<path d="M99.0195 7.0391C100.187 7.93614 100.387 9.48729 99.4872 10.6585C98.5872 11.8296 97.0367 12.0352 95.8694 11.1382C94.7021 10.2411 94.5017 8.68999 95.4017 7.51883C96.3017 6.34767 97.8522 6.14207 99.0195 7.0391Z" fill="#FFCF2D"/>
<path d="M19.6865 140.272C20.8537 141.169 21.0542 142.72 20.1542 143.891C19.2542 145.062 17.6064 145.193 16.5364 144.371C15.3691 143.474 15.1687 141.922 16.0687 140.751C16.9687 139.58 18.5192 139.374 19.6865 140.272Z" fill="#FFCF2D"/>
<path d="M33.1117 122.801C34.279 123.698 34.4795 125.249 33.5795 126.42C32.6794 127.591 31.129 127.797 29.9617 126.9C28.7944 126.003 28.594 124.452 29.494 123.281C30.319 122.207 31.9445 121.904 33.1117 122.801Z" fill="#FFCF2D"/>
<path d="M46.4618 105.429C47.6291 106.326 47.8296 107.877 46.9296 109.048C46.0295 110.219 44.4791 110.425 43.3118 109.528C42.1445 108.631 41.9441 107.08 42.8441 105.908C43.7441 104.737 45.2946 104.532 46.4618 105.429Z" fill="#FFCF2D"/>
<path d="M59.8871 87.959C61.0544 88.8561 61.2549 90.4072 60.3549 91.5784C59.4548 92.7495 57.9044 92.9551 56.7371 92.0581C55.5698 91.1611 55.3693 89.6099 56.2694 88.4387C57.1694 87.2676 58.7199 87.062 59.8871 87.959Z" fill="#FFCF2D"/>
<path d="M73.3124 70.4893C74.4797 71.3863 74.6802 72.9375 73.7801 74.1086C72.8801 75.2798 71.3297 75.4854 70.1624 74.5884C68.9951 73.6913 68.7946 72.1402 69.6947 70.969C70.5197 69.8955 72.1451 69.5923 73.3124 70.4893Z" fill="#FFCF2D"/>
<path d="M86.7377 53.0196C87.905 53.9166 88.1055 55.4678 87.2054 56.6389C86.3054 57.8101 84.7549 58.0157 83.5877 57.1186C82.4204 56.2216 82.2199 54.6705 83.1199 53.4993C84.02 52.3281 85.5704 52.1225 86.7377 53.0196Z" fill="#FFCF2D"/>
<path d="M100.088 35.6475C101.255 36.5445 101.456 38.0957 100.556 39.2669C99.6555 40.438 98.105 40.6436 96.9378 39.7466C95.7705 38.8495 95.57 37.2984 96.47 36.1272C97.3701 34.9561 98.9205 34.7505 100.088 35.6475Z" fill="#FFCF2D"/>
<path d="M113.513 18.1778C114.68 19.0748 114.881 20.626 113.981 21.7971C113.081 22.9683 111.53 23.1739 110.363 22.2768C109.196 21.3798 108.995 19.8287 109.895 18.6575C110.795 17.4863 112.346 17.2807 113.513 18.1778Z" fill="#FFCF2D"/>
<path d="M126.938 0.70806C128.106 1.6051 128.306 3.15623 127.406 4.32739C126.506 5.49855 124.956 5.70415 123.788 4.80712C122.621 3.91008 122.421 2.35893 123.321 1.18777C124.146 0.114205 125.771 -0.188976 126.938 0.70806Z" fill="#FFCF2D"/>
<path d="M62.9736 173.536C64.1408 174.433 64.3413 175.984 63.4413 177.156C62.5413 178.327 60.9908 178.532 59.8235 177.635C58.6562 176.738 58.4558 175.187 59.3558 174.016C60.2558 172.845 61.9036 172.714 62.9736 173.536Z" fill="#FFCF2D"/>
<path d="M76.3989 156.066C77.5661 156.963 77.7666 158.515 76.8666 159.686C75.9665 160.857 74.4161 161.063 73.2488 160.166C72.0815 159.268 71.8811 157.717 72.7811 156.546C73.6061 155.473 75.3288 155.244 76.3989 156.066Z" fill="#FFCF2D"/>
<path d="M89.749 138.694C90.9162 139.591 91.1167 141.143 90.2167 142.314C89.3167 143.485 87.7662 143.69 86.5989 142.793C85.4316 141.896 85.2312 140.345 86.1312 139.174C87.0312 138.003 88.6789 137.872 89.749 138.694Z" fill="#FFCF2D"/>
<path d="M103.174 121.225C104.342 122.122 104.542 123.673 103.642 124.844C102.742 126.015 101.191 126.221 100.024 125.324C98.8569 124.427 98.6565 122.876 99.5565 121.704C100.456 120.533 102.104 120.402 103.174 121.225Z" fill="#FFCF2D"/>
<path d="M116.6 103.755C117.767 104.652 117.967 106.203 117.067 107.374C116.167 108.545 114.617 108.751 113.449 107.854C112.282 106.957 112.082 105.406 112.982 104.235C113.807 103.161 115.53 102.933 116.6 103.755Z" fill="#FFCF2D"/>
<path d="M130.025 86.2842C131.192 87.1813 131.393 88.7324 130.493 89.9036C129.593 91.0747 128.042 91.2803 126.875 90.3833C125.707 89.4863 125.507 87.9351 126.407 86.7639C127.307 85.5928 128.955 85.4619 130.025 86.2842Z" fill="#FFCF2D"/>
<path d="M143.375 68.9121C144.542 69.8092 144.743 71.3603 143.843 72.5315C142.943 73.7027 141.392 73.9083 140.225 73.0112C139.058 72.1142 138.857 70.563 139.757 69.3919C140.657 68.2207 142.305 68.0899 143.375 68.9121Z" fill="#FFCF2D"/>
<path d="M156.8 51.4424C157.968 52.3395 158.168 53.8906 157.268 55.0618C156.368 56.2329 154.817 56.4385 153.65 55.5415C152.483 54.6445 152.282 53.0933 153.182 51.9221C154.082 50.751 155.73 50.6201 156.8 51.4424Z" fill="#FFCF2D"/>
<path d="M170.226 33.9727C171.393 34.8697 171.593 36.4209 170.693 37.592C169.793 38.7632 168.243 38.9688 167.075 38.0718C165.908 37.1747 165.708 35.6236 166.608 34.4524C167.433 33.3789 169.155 33.1504 170.226 33.9727Z" fill="#FFCF2D"/>
<path d="M77.4672 184.674C78.6345 185.571 78.8349 187.122 77.9349 188.293C77.0349 189.464 75.4844 189.67 74.3172 188.773C73.1499 187.876 72.9494 186.325 73.8494 185.154C74.7495 183.982 76.2999 183.777 77.4672 184.674Z" fill="#FFCF2D"/>
<path d="M90.8925 167.204C92.0598 168.101 92.2602 169.652 91.3602 170.823C90.4602 171.995 88.9097 172.2 87.7424 171.303C86.5752 170.406 86.3747 168.855 87.2747 167.684C88.0998 166.61 89.7252 166.307 90.8925 167.204Z" fill="#FFCF2D"/>
<path d="M104.243 149.832C105.41 150.729 105.61 152.28 104.71 153.451C103.81 154.623 102.26 154.828 101.093 153.931C99.9253 153.034 99.7248 151.483 100.625 150.312C101.525 149.141 103.075 148.935 104.243 149.832Z" fill="#FFCF2D"/>
<path d="M118.136 135.982C119.005 134.85 118.796 133.229 117.668 132.362C116.54 131.495 114.92 131.71 114.05 132.842C113.18 133.974 113.39 135.594 114.518 136.461C115.646 137.328 117.266 137.114 118.136 135.982Z" fill="#FFCF2D"/>
<path d="M131.093 114.893C132.26 115.79 132.461 117.341 131.561 118.512C130.661 119.683 129.11 119.889 127.943 118.992C126.776 118.095 126.575 116.544 127.475 115.372C128.3 114.299 129.926 113.996 131.093 114.893Z" fill="#FFCF2D"/>
<path d="M144.518 97.4229C145.686 98.3199 145.886 99.8711 144.986 101.042C144.086 102.213 142.536 102.419 141.368 101.522C140.201 100.625 140.001 99.0738 140.901 97.9026C141.801 96.7315 143.351 96.5259 144.518 97.4229Z" fill="#FFCF2D"/>
<path d="M157.869 80.0508C159.036 80.9479 159.236 82.499 158.336 83.6702C157.436 84.8413 155.886 85.0469 154.719 84.1499C153.551 83.2529 153.351 81.7017 154.251 80.5305C155.151 79.3594 156.701 79.1538 157.869 80.0508Z" fill="#FFCF2D"/>
<path d="M171.762 66.2004C172.631 65.0685 172.422 63.4481 171.294 62.5811C170.166 61.7141 168.546 61.9289 167.676 63.0608C166.806 64.1927 167.016 65.8132 168.144 66.6802C169.272 67.5471 170.892 67.3324 171.762 66.2004Z" fill="#FFCF2D"/>
<path d="M184.719 45.1114C185.886 46.0084 186.087 47.5595 185.187 48.7307C184.287 49.9019 182.736 50.1075 181.569 49.2104C180.402 48.3134 180.201 46.7622 181.101 45.5911C181.926 44.5175 183.552 44.2143 184.719 45.1114Z" fill="#FFCF2D"/>
<path d="M91.9609 195.813C93.1282 196.71 93.3286 198.261 92.4286 199.432C91.5286 200.603 89.9781 200.809 88.8108 199.912C87.6435 199.015 87.4431 197.463 88.3431 196.292C89.2431 195.121 90.7936 194.916 91.9609 195.813Z" fill="#FFCF2D"/>
<path d="M105.386 178.343C106.553 179.24 106.754 180.791 105.854 181.962C104.954 183.133 103.403 183.339 102.236 182.442C101.069 181.545 100.868 179.994 101.768 178.823C102.593 177.749 104.219 177.446 105.386 178.343Z" fill="#FFCF2D"/>
<path d="M118.736 160.971C119.904 161.868 120.104 163.419 119.204 164.59C118.304 165.761 116.753 165.967 115.586 165.07C114.419 164.173 114.218 162.622 115.118 161.45C116.018 160.279 117.569 160.074 118.736 160.971Z" fill="#FFCF2D"/>
<path d="M132.162 143.501C133.329 144.398 133.529 145.949 132.629 147.12C131.729 148.292 130.179 148.497 129.012 147.6C127.844 146.703 127.644 145.152 128.544 143.981C129.444 142.81 130.994 142.604 132.162 143.501Z" fill="#FFCF2D"/>
<path d="M145.587 126.031C146.754 126.928 146.955 128.479 146.055 129.651C145.155 130.822 143.604 131.027 142.437 130.13C141.27 129.233 141.069 127.682 141.969 126.511C142.794 125.437 144.42 125.134 145.587 126.031Z" fill="#FFCF2D"/>
<path d="M159.012 108.561C160.179 109.458 160.38 111.009 159.48 112.18C158.58 113.351 157.029 113.557 155.862 112.66C154.695 111.763 154.494 110.211 155.394 109.04C156.294 107.869 157.845 107.664 159.012 108.561Z" fill="#FFCF2D"/>
<path d="M172.362 91.1885C173.53 92.0856 173.73 93.6367 172.83 94.8079C171.93 95.979 170.379 96.1846 169.212 95.2876C168.045 94.3906 167.844 92.8394 168.744 91.6682C169.644 90.4971 171.195 90.2915 172.362 91.1885Z" fill="#FFCF2D"/>
<path d="M185.788 73.7188C186.955 74.6158 187.155 76.167 186.255 77.3381C185.355 78.5093 183.805 78.7149 182.637 77.8179C181.47 76.9208 181.27 75.3697 182.17 74.1985C183.07 73.0274 184.62 72.8218 185.788 73.7188Z" fill="#FFCF2D"/>
<path d="M199.213 56.2491C200.38 57.1461 200.581 58.6973 199.681 59.8684C198.781 61.0396 197.23 61.2452 196.063 60.3481C194.895 59.4511 194.695 57.8999 195.595 56.7288C196.42 55.6552 198.046 55.352 199.213 56.2491Z" fill="#FFCF2D"/>
<path d="M106.357 206.876C107.525 207.773 107.725 209.324 106.825 210.495C105.925 211.667 104.375 211.872 103.207 210.975C102.04 210.078 101.84 208.527 102.74 207.356C103.64 206.185 105.287 206.054 106.357 206.876Z" fill="#FFCF2D"/>
<path d="M119.783 189.406C120.95 190.303 121.15 191.854 120.25 193.026C119.35 194.197 117.8 194.402 116.633 193.505C115.465 192.608 115.265 191.057 116.165 189.886C116.99 188.812 118.713 188.584 119.783 189.406Z" fill="#FFCF2D"/>
<path d="M133.133 172.034C134.3 172.931 134.5 174.482 133.6 175.654C132.7 176.825 131.15 177.03 129.983 176.133C128.815 175.236 128.615 173.685 129.515 172.514C130.415 171.343 132.063 171.212 133.133 172.034Z" fill="#FFCF2D"/>
<path d="M146.558 154.564C147.725 155.462 147.926 157.013 147.026 158.184C146.126 159.355 144.575 159.561 143.408 158.664C142.241 157.767 142.04 156.215 142.94 155.044C143.84 153.873 145.488 153.742 146.558 154.564Z" fill="#FFCF2D"/>
<path d="M159.983 137.094C161.151 137.991 161.351 139.542 160.451 140.713C159.551 141.884 158.001 142.09 156.833 141.193C155.666 140.296 155.466 138.745 156.366 137.574C157.191 136.5 158.913 136.272 159.983 137.094Z" fill="#FFCF2D"/>
<path d="M173.409 119.624C174.576 120.521 174.776 122.072 173.876 123.243C172.976 124.415 171.426 124.62 170.259 123.723C169.091 122.826 168.891 121.275 169.791 120.104C170.691 118.933 172.339 118.802 173.409 119.624Z" fill="#FFCF2D"/>
<path d="M186.759 102.252C187.926 103.149 188.126 104.7 187.226 105.871C186.326 107.042 184.776 107.248 183.609 106.351C182.441 105.454 182.241 103.903 183.141 102.732C184.041 101.561 185.689 101.43 186.759 102.252Z" fill="#FFCF2D"/>
<path d="M200.184 84.7823C201.351 85.6793 201.552 87.2305 200.652 88.4016C199.752 89.5728 198.201 89.7784 197.034 88.8813C195.867 87.9843 195.666 86.4332 196.566 85.262C197.466 84.0908 199.114 83.96 200.184 84.7823Z" fill="#FFCF2D"/>
<path d="M213.609 67.3126C214.777 68.2096 214.977 69.7607 214.077 70.9319C213.177 72.103 211.627 72.3086 210.459 71.4116C209.292 70.5146 209.092 68.9634 209.992 67.7923C210.817 66.7187 212.539 66.4903 213.609 67.3126Z" fill="#FFCF2D"/>
</g>
<defs>
<clipPath id="clip0_2234_9590">
<rect width="181.184" height="132.739" fill="white" transform="translate(0 131.662) rotate(-52.4584)"/>
</clipPath>
</defs>
</svg>
