<svg width="133" height="182" viewBox="0 0 133 182" fill="none" xmlns="http://www.w3.org/2000/svg">
<g opacity="0.8" clip-path="url(#clip0_2601_2509)">
<path d="M39.0118 176.014C40.484 176.014 41.5881 177.122 41.5881 178.599C41.5881 180.076 40.484 181.184 39.0118 181.184C37.5397 181.184 36.4355 180.076 36.4355 178.599C36.4355 177.122 37.6623 176.014 39.0118 176.014Z" fill="#FFCF2D"/>
<path d="M39.0118 153.982C40.484 153.982 41.5881 155.09 41.5881 156.567C41.5881 158.044 40.484 159.151 39.0118 159.151C37.5397 159.151 36.4355 158.044 36.4355 156.567C36.4355 155.213 37.6623 153.982 39.0118 153.982Z" fill="#FFCF2D"/>
<path d="M39.0118 132.073C40.484 132.073 41.5881 133.18 41.5881 134.657C41.5881 136.134 40.484 137.242 39.0118 137.242C37.5397 137.242 36.4355 136.134 36.4355 134.657C36.4355 133.18 37.6623 132.073 39.0118 132.073Z" fill="#FFCF2D"/>
<path d="M39.0118 110.039C40.484 110.039 41.5881 111.147 41.5881 112.624C41.5881 114.101 40.484 115.209 39.0118 115.209C37.5397 115.209 36.4355 114.101 36.4355 112.624C36.4355 111.147 37.6623 110.039 39.0118 110.039Z" fill="#FFCF2D"/>
<path d="M39.0118 88.0071C40.484 88.0071 41.5881 89.1149 41.5881 90.5919C41.5881 92.069 40.484 93.1768 39.0118 93.1768C37.5397 93.1768 36.4355 92.069 36.4355 90.5919C36.4355 89.238 37.6623 88.0071 39.0118 88.0071Z" fill="#FFCF2D"/>
<path d="M39.0118 65.9739C40.484 65.9739 41.5881 67.0817 41.5881 68.5587C41.5881 70.0358 40.484 71.1436 39.0118 71.1436C37.5397 71.1436 36.4355 70.0358 36.4355 68.5587C36.4355 67.0817 37.6623 65.9739 39.0118 65.9739Z" fill="#FFCF2D"/>
<path d="M39.0118 44.0657C40.484 44.0657 41.5881 45.1735 41.5881 46.6505C41.5881 48.1276 40.484 49.2354 39.0118 49.2354C37.5397 49.2354 36.4355 48.1276 36.4355 46.6505C36.4355 45.1735 37.6623 44.0657 39.0118 44.0657Z" fill="#FFCF2D"/>
<path d="M39.0118 22.0325C40.484 22.0325 41.5881 23.1403 41.5881 24.6173C41.5881 26.0944 40.484 27.2021 39.0118 27.2021C37.5397 27.2021 36.4355 26.0944 36.4355 24.6173C36.4355 23.1403 37.6623 22.0325 39.0118 22.0325Z" fill="#FFCF2D"/>
<path d="M39.0118 0.000305029C40.484 0.000304964 41.5881 1.10807 41.5881 2.5851C41.5881 4.06214 40.484 5.16992 39.0118 5.16992C37.5397 5.16992 36.4355 4.06214 36.4355 2.5851C36.4355 1.23116 37.6623 0.000305088 39.0118 0.000305029Z" fill="#FFCF2D"/>
<path d="M57.2911 176.014C58.7633 176.014 59.8674 177.122 59.8674 178.599C59.8674 180.076 58.7633 181.184 57.2911 181.184C55.819 181.184 54.7148 180.076 54.7148 178.599C54.7148 177.122 55.819 176.014 57.2911 176.014Z" fill="#FFCF2D"/>
<path d="M57.2911 153.982C58.7633 153.982 59.8674 155.09 59.8674 156.567C59.8674 158.044 58.7633 159.151 57.2911 159.151C55.819 159.151 54.7148 158.044 54.7148 156.567C54.7148 155.213 55.819 153.982 57.2911 153.982Z" fill="#FFCF2D"/>
<path d="M57.2911 132.073C58.7633 132.073 59.8674 133.18 59.8674 134.657C59.8674 136.134 58.7633 137.242 57.2911 137.242C55.819 137.242 54.7148 136.134 54.7148 134.657C54.7148 133.18 55.819 132.073 57.2911 132.073Z" fill="#FFCF2D"/>
<path d="M57.2911 110.039C58.7633 110.039 59.8674 111.147 59.8674 112.624C59.8674 114.101 58.7633 115.209 57.2911 115.209C55.819 115.209 54.7148 114.101 54.7148 112.624C54.7148 111.147 55.819 110.039 57.2911 110.039Z" fill="#FFCF2D"/>
<path d="M57.2911 88.0071C58.7633 88.0071 59.8674 89.1149 59.8674 90.5919C59.8674 92.069 58.7633 93.1768 57.2911 93.1768C55.819 93.1768 54.7148 92.069 54.7148 90.5919C54.7148 89.238 55.819 88.0071 57.2911 88.0071Z" fill="#FFCF2D"/>
<path d="M57.2911 65.9739C58.7633 65.9739 59.8674 67.0817 59.8674 68.5587C59.8674 70.0358 58.7633 71.1436 57.2911 71.1436C55.819 71.1436 54.7148 70.0358 54.7148 68.5587C54.7148 67.0817 55.819 65.9739 57.2911 65.9739Z" fill="#FFCF2D"/>
<path d="M57.2911 44.0657C58.7633 44.0657 59.8674 45.1735 59.8674 46.6505C59.8674 48.1276 58.7633 49.2354 57.2911 49.2354C55.819 49.2354 54.7148 48.1276 54.7148 46.6505C54.7148 45.1735 55.819 44.0657 57.2911 44.0657Z" fill="#FFCF2D"/>
<path d="M57.2911 22.0325C58.7633 22.0325 59.8674 23.1403 59.8674 24.6173C59.8674 26.0944 58.7633 27.2021 57.2911 27.2021C55.819 27.2021 54.7148 26.0944 54.7148 24.6173C54.7148 23.1403 55.819 22.0325 57.2911 22.0325Z" fill="#FFCF2D"/>
<path d="M57.2911 0.000290008C58.7633 0.000289944 59.8674 1.10806 59.8674 2.5851C59.8674 4.06214 58.7633 5.16992 57.2911 5.16992C55.819 5.16992 54.7148 4.06214 54.7148 2.5851C54.7148 1.23114 55.819 0.000290073 57.2911 0.000290008Z" fill="#FFCF2D"/>
<path d="M2.57626 176.014C4.04841 176.014 5.15252 177.122 5.15252 178.599C5.15252 180.076 4.04841 181.184 2.57626 181.184C1.10411 181.184 -4.84226e-08 180.076 -1.12986e-07 178.599C-1.7755e-07 177.122 1.10411 176.014 2.57626 176.014Z" fill="#FFCF2D"/>
<path d="M2.57626 153.982C4.04841 153.982 5.15252 155.09 5.15252 156.567C5.15252 158.044 4.04841 159.151 2.57626 159.151C1.10411 159.151 -4.84226e-08 158.044 -1.12986e-07 156.567C-1.72169e-07 155.213 1.10411 153.982 2.57626 153.982Z" fill="#FFCF2D"/>
<path d="M2.57626 132.073C4.04841 132.073 5.15252 133.18 5.15252 134.657C5.15252 136.134 4.04841 137.242 2.57626 137.242C1.10411 137.242 -5.38028e-08 136.011 -1.12986e-07 134.657C-1.77549e-07 133.18 1.10411 132.073 2.57626 132.073Z" fill="#FFCF2D"/>
<path d="M2.57626 110.039C4.04841 110.039 5.15252 111.147 5.15252 112.624C5.15252 114.101 4.04841 115.209 2.57626 115.209C1.10411 115.209 -5.3803e-08 113.978 -1.12986e-07 112.624C-1.72169e-07 111.27 1.10411 110.039 2.57626 110.039Z" fill="#FFCF2D"/>
<path d="M2.57626 88.0071C4.04841 88.0071 5.15252 89.1149 5.15252 90.5919C5.15252 92.069 4.04841 93.1768 2.57626 93.1768C1.10411 93.1768 -4.84226e-08 92.069 -1.12986e-07 90.5919C-1.72169e-07 89.238 1.10411 88.0071 2.57626 88.0071Z" fill="#FFCF2D"/>
<path d="M2.57626 65.9739C4.04841 65.9739 5.15252 67.0817 5.15252 68.5587C5.15252 70.0358 4.04841 71.1436 2.57626 71.1436C1.10411 71.1436 -4.84226e-08 70.0358 -1.12986e-07 68.5587C-1.7755e-07 67.0817 1.10411 65.9739 2.57626 65.9739Z" fill="#FFCF2D"/>
<path d="M2.57626 44.0657C4.04841 44.0657 5.15252 45.1735 5.15252 46.6505C5.15252 48.1276 4.04841 49.2354 2.57626 49.2354C1.10411 49.2354 -4.84228e-08 48.1276 -1.12986e-07 46.6505C-1.77549e-07 45.1735 1.10411 44.0657 2.57626 44.0657Z" fill="#FFCF2D"/>
<path d="M2.57626 22.0325C4.04841 22.0325 5.15252 23.1403 5.15252 24.6173C5.15252 26.0944 4.04841 27.2021 2.57626 27.2021C1.10411 27.2021 -4.84225e-08 26.0944 -1.12986e-07 24.6173C-1.7755e-07 23.1403 1.10411 22.0325 2.57626 22.0325Z" fill="#FFCF2D"/>
<path d="M2.57626 0.000305029C4.04841 0.000304964 5.15252 1.10807 5.15252 2.5851C5.15252 4.06214 4.04841 5.16992 2.57626 5.16992C1.10411 5.16992 -4.84227e-08 4.06214 -1.12986e-07 2.5851C-1.72169e-07 1.23116 1.10411 0.000305093 2.57626 0.000305029Z" fill="#FFCF2D"/>
<path d="M20.8556 176.014C22.3277 176.014 23.4318 177.122 23.4318 178.599C23.4318 180.076 22.205 181.184 20.8556 181.184C19.3834 181.184 18.2793 180.076 18.2793 178.599C18.2793 177.122 19.3834 176.014 20.8556 176.014Z" fill="#FFCF2D"/>
<path d="M20.8556 153.982C22.3277 153.982 23.4318 155.09 23.4318 156.567C23.4318 158.044 22.3277 159.151 20.8556 159.151C19.3834 159.151 18.2793 158.044 18.2793 156.567C18.2793 155.213 19.3834 153.982 20.8556 153.982Z" fill="#FFCF2D"/>
<path d="M20.8556 132.073C22.3277 132.073 23.4318 133.18 23.4318 134.657C23.4318 136.134 22.3277 137.242 20.8556 137.242C19.3834 137.242 18.2793 136.134 18.2793 134.657C18.2793 133.18 19.3834 132.073 20.8556 132.073Z" fill="#FFCF2D"/>
<path d="M20.8556 110.039C22.3277 110.039 23.4318 111.147 23.4318 112.624C23.4318 114.101 22.3277 115.209 20.8556 115.209C19.3834 115.209 18.2793 114.101 18.2793 112.624C18.2793 111.147 19.3834 110.039 20.8556 110.039Z" fill="#FFCF2D"/>
<path d="M20.8556 88.0071C22.3277 88.0071 23.4318 89.1149 23.4318 90.5919C23.4318 92.069 22.3277 93.1768 20.8556 93.1768C19.3834 93.1768 18.2793 92.069 18.2793 90.5919C18.2793 89.238 19.3834 88.0071 20.8556 88.0071Z" fill="#FFCF2D"/>
<path d="M20.8556 65.9739C22.3277 65.9739 23.4318 67.0817 23.4318 68.5587C23.4318 70.0358 22.3277 71.1436 20.8556 71.1436C19.3834 71.1436 18.2793 70.0358 18.2793 68.5587C18.2793 67.0817 19.3834 65.9739 20.8556 65.9739Z" fill="#FFCF2D"/>
<path d="M20.8556 44.0657C22.3277 44.0657 23.4318 45.1735 23.4318 46.6505C23.4318 48.1276 22.3277 49.2354 20.8556 49.2354C19.3834 49.2354 18.2793 48.1276 18.2793 46.6505C18.2793 45.1735 19.3834 44.0657 20.8556 44.0657Z" fill="#FFCF2D"/>
<path d="M20.8556 22.0325C22.3277 22.0325 23.4318 23.1403 23.4318 24.6173C23.4318 26.0944 22.3277 27.2021 20.8556 27.2021C19.3834 27.2021 18.2793 26.0944 18.2793 24.6173C18.2793 23.1403 19.3834 22.0325 20.8556 22.0325Z" fill="#FFCF2D"/>
<path d="M20.8556 0.000290008C22.3277 0.000289944 23.4318 1.10806 23.4318 2.5851C23.4318 4.06214 22.3277 5.16992 20.8556 5.16992C19.3834 5.16992 18.2793 4.06214 18.2793 2.5851C18.2793 1.23114 19.3834 0.000290073 20.8556 0.000290008Z" fill="#FFCF2D"/>
<path d="M75.4478 176.014C76.92 176.014 78.0241 177.122 78.0241 178.599C78.0241 180.076 76.92 181.184 75.4478 181.184C73.9757 181.184 72.8716 180.076 72.8716 178.599C72.8716 177.122 74.0984 176.014 75.4478 176.014Z" fill="#FFCF2D"/>
<path d="M75.4478 153.982C76.92 153.982 78.0241 155.09 78.0241 156.567C78.0241 158.044 76.92 159.151 75.4478 159.151C73.9757 159.151 72.8716 158.044 72.8716 156.567C72.8716 155.213 74.0984 153.982 75.4478 153.982Z" fill="#FFCF2D"/>
<path d="M75.4478 132.073C76.92 132.073 78.0241 133.18 78.0241 134.657C78.0241 136.134 76.92 137.242 75.4478 137.242C73.9757 137.242 72.8716 136.134 72.8716 134.657C72.8716 133.18 74.0984 132.073 75.4478 132.073Z" fill="#FFCF2D"/>
<path d="M75.4478 110.039C76.92 110.039 78.0241 111.147 78.0241 112.624C78.0241 114.101 76.92 115.209 75.4478 115.209C73.9757 115.209 72.8716 114.101 72.8716 112.624C72.8716 111.147 74.0984 110.039 75.4478 110.039Z" fill="#FFCF2D"/>
<path d="M75.4478 88.0071C76.92 88.0071 78.0241 89.1149 78.0241 90.5919C78.0241 92.069 76.92 93.1768 75.4478 93.1768C73.9757 93.1768 72.8716 92.069 72.8716 90.5919C72.8716 89.238 74.0984 88.0071 75.4478 88.0071Z" fill="#FFCF2D"/>
<path d="M75.4478 65.9739C76.92 65.9739 78.0241 67.0817 78.0241 68.5587C78.0241 70.0358 76.92 71.1436 75.4478 71.1436C73.9757 71.1436 72.8716 70.0358 72.8716 68.5587C72.8716 67.0817 74.0984 65.9739 75.4478 65.9739Z" fill="#FFCF2D"/>
<path d="M75.4478 44.0657C76.92 44.0657 78.0241 45.1735 78.0241 46.6505C78.0241 48.1276 76.92 49.2354 75.4478 49.2354C73.9757 49.2354 72.8716 48.1276 72.8716 46.6505C72.8716 45.1735 74.0984 44.0657 75.4478 44.0657Z" fill="#FFCF2D"/>
<path d="M75.4478 22.0325C76.92 22.0325 78.0241 23.1403 78.0241 24.6173C78.0241 26.0944 76.92 27.2021 75.4478 27.2021C73.9757 27.2021 72.8716 26.0944 72.8716 24.6173C72.8716 23.1403 74.0984 22.0325 75.4478 22.0325Z" fill="#FFCF2D"/>
<path d="M75.4478 0.000290008C76.92 0.000289944 78.0241 1.10806 78.0241 2.5851C78.0241 4.06214 76.92 5.16992 75.4478 5.16992C73.9757 5.16992 72.8716 4.06214 72.8716 2.5851C72.8716 1.23114 74.0984 0.000290067 75.4478 0.000290008Z" fill="#FFCF2D"/>
<path d="M93.7266 176.014C95.1988 176.014 96.3029 177.122 96.3029 178.599C96.3029 180.076 95.1988 181.184 93.7266 181.184C92.2545 181.184 91.1504 180.076 91.1504 178.599C91.1504 177.122 92.2545 176.014 93.7266 176.014Z" fill="#FFCF2D"/>
<path d="M93.7266 153.982C95.1988 153.982 96.3029 155.09 96.3029 156.567C96.3029 158.044 95.1988 159.151 93.7266 159.151C92.2545 159.151 91.1504 158.044 91.1504 156.567C91.1504 155.213 92.2545 153.982 93.7266 153.982Z" fill="#FFCF2D"/>
<path d="M93.7266 132.073C95.1988 132.073 96.3029 133.18 96.3029 134.657C96.3029 136.134 95.1988 137.242 93.7266 137.242C92.2545 137.242 91.1504 136.134 91.1504 134.657C91.1504 133.18 92.2545 132.073 93.7266 132.073Z" fill="#FFCF2D"/>
<path d="M96.3029 112.624C96.3029 111.197 95.1495 110.039 93.7266 110.039C92.3038 110.039 91.1504 111.197 91.1504 112.624C91.1504 114.052 92.3038 115.209 93.7266 115.209C95.1495 115.209 96.3029 114.052 96.3029 112.624Z" fill="#FFCF2D"/>
<path d="M93.7266 88.0071C95.1988 88.0071 96.3029 89.1149 96.3029 90.5919C96.3029 92.069 95.1988 93.1768 93.7266 93.1768C92.2545 93.1768 91.1504 92.069 91.1504 90.5919C91.1504 89.238 92.2545 88.0071 93.7266 88.0071Z" fill="#FFCF2D"/>
<path d="M93.7266 65.9739C95.1988 65.9739 96.3029 67.0817 96.3029 68.5587C96.3029 70.0358 95.1988 71.1436 93.7266 71.1436C92.2545 71.1436 91.1504 70.0358 91.1504 68.5587C91.1504 67.0817 92.2545 65.9739 93.7266 65.9739Z" fill="#FFCF2D"/>
<path d="M93.7266 44.0657C95.1988 44.0657 96.3029 45.1735 96.3029 46.6505C96.3029 48.1276 95.1988 49.2354 93.7266 49.2354C92.2545 49.2354 91.1504 48.1276 91.1504 46.6505C91.1504 45.1735 92.2545 44.0657 93.7266 44.0657Z" fill="#FFCF2D"/>
<path d="M96.3029 24.6173C96.3029 23.1898 95.1495 22.0325 93.7266 22.0325C92.3038 22.0325 91.1504 23.1898 91.1504 24.6173C91.1504 26.0449 92.3038 27.2021 93.7266 27.2021C95.1495 27.2021 96.3029 26.0449 96.3029 24.6173Z" fill="#FFCF2D"/>
<path d="M93.7266 0.000290008C95.1988 0.000289944 96.3029 1.10806 96.3029 2.5851C96.3029 4.06214 95.1988 5.16992 93.7266 5.16992C92.2545 5.16992 91.1504 4.06214 91.1504 2.5851C91.1504 1.23114 92.2545 0.000290073 93.7266 0.000290008Z" fill="#FFCF2D"/>
<path d="M112.006 176.014C113.478 176.014 114.582 177.122 114.582 178.599C114.582 180.076 113.478 181.184 112.006 181.184C110.534 181.184 109.43 180.076 109.43 178.599C109.43 177.122 110.534 176.014 112.006 176.014Z" fill="#FFCF2D"/>
<path d="M112.006 153.982C113.478 153.982 114.582 155.09 114.582 156.567C114.582 158.044 113.478 159.151 112.006 159.151C110.534 159.151 109.43 158.044 109.43 156.567C109.43 155.213 110.534 153.982 112.006 153.982Z" fill="#FFCF2D"/>
<path d="M112.006 132.073C113.478 132.073 114.582 133.18 114.582 134.657C114.582 136.134 113.478 137.242 112.006 137.242C110.534 137.242 109.43 136.134 109.43 134.657C109.43 133.18 110.534 132.073 112.006 132.073Z" fill="#FFCF2D"/>
<path d="M112.006 110.039C113.478 110.039 114.582 111.147 114.582 112.624C114.582 114.101 113.478 115.209 112.006 115.209C110.534 115.209 109.43 114.101 109.43 112.624C109.43 111.147 110.534 110.039 112.006 110.039Z" fill="#FFCF2D"/>
<path d="M112.006 88.0071C113.478 88.0071 114.582 89.1149 114.582 90.5919C114.582 92.069 113.478 93.1768 112.006 93.1768C110.534 93.1768 109.43 92.069 109.43 90.5919C109.43 89.238 110.534 88.0071 112.006 88.0071Z" fill="#FFCF2D"/>
<path d="M112.006 65.9739C113.478 65.9739 114.582 67.0817 114.582 68.5587C114.582 70.0358 113.478 71.1436 112.006 71.1436C110.534 71.1436 109.43 70.0358 109.43 68.5587C109.43 67.0817 110.534 65.9739 112.006 65.9739Z" fill="#FFCF2D"/>
<path d="M112.006 44.0657C113.478 44.0657 114.582 45.1735 114.582 46.6505C114.582 48.1276 113.478 49.2354 112.006 49.2354C110.534 49.2354 109.43 48.1276 109.43 46.6505C109.43 45.1735 110.534 44.0657 112.006 44.0657Z" fill="#FFCF2D"/>
<path d="M112.006 22.0325C113.478 22.0325 114.582 23.1403 114.582 24.6173C114.582 26.0944 113.478 27.2021 112.006 27.2021C110.534 27.2021 109.43 26.0944 109.43 24.6173C109.43 23.1403 110.534 22.0325 112.006 22.0325Z" fill="#FFCF2D"/>
<path d="M112.006 0.000290008C113.478 0.000289944 114.582 1.10806 114.582 2.5851C114.582 4.06214 113.478 5.16992 112.006 5.16992C110.534 5.16992 109.43 4.06214 109.43 2.5851C109.43 1.23114 110.534 0.000290073 112.006 0.000290008Z" fill="#FFCF2D"/>
<path d="M130.163 176.014C131.635 176.014 132.739 177.122 132.739 178.599C132.739 180.076 131.635 181.184 130.163 181.184C128.691 181.184 127.586 180.076 127.586 178.599C127.586 177.122 128.813 176.014 130.163 176.014Z" fill="#FFCF2D"/>
<path d="M130.163 153.982C131.635 153.982 132.739 155.09 132.739 156.567C132.739 158.044 131.635 159.151 130.163 159.151C128.691 159.151 127.586 158.044 127.586 156.567C127.586 155.213 128.813 153.982 130.163 153.982Z" fill="#FFCF2D"/>
<path d="M130.163 132.073C131.635 132.073 132.739 133.18 132.739 134.657C132.739 136.134 131.635 137.242 130.163 137.242C128.691 137.242 127.586 136.134 127.586 134.657C127.586 133.18 128.813 132.073 130.163 132.073Z" fill="#FFCF2D"/>
<path d="M130.163 110.039C131.635 110.039 132.739 111.147 132.739 112.624C132.739 114.101 131.635 115.209 130.163 115.209C128.691 115.209 127.586 114.101 127.586 112.624C127.586 111.147 128.813 110.039 130.163 110.039Z" fill="#FFCF2D"/>
<path d="M130.163 88.0071C131.635 88.0071 132.739 89.1149 132.739 90.5919C132.739 92.069 131.635 93.1768 130.163 93.1768C128.691 93.1768 127.586 92.069 127.586 90.5919C127.586 89.238 128.813 88.0071 130.163 88.0071Z" fill="#FFCF2D"/>
<path d="M130.163 65.9739C131.635 65.9739 132.739 67.0817 132.739 68.5587C132.739 70.0358 131.635 71.1436 130.163 71.1436C128.691 71.1436 127.586 70.0358 127.586 68.5587C127.586 67.0817 128.813 65.9739 130.163 65.9739Z" fill="#FFCF2D"/>
<path d="M130.163 44.0657C131.635 44.0657 132.739 45.1735 132.739 46.6505C132.739 48.1276 131.635 49.2354 130.163 49.2354C128.691 49.2354 127.586 48.1276 127.586 46.6505C127.586 45.1735 128.813 44.0657 130.163 44.0657Z" fill="#FFCF2D"/>
<path d="M130.163 22.0325C131.635 22.0325 132.739 23.1403 132.739 24.6173C132.739 26.0944 131.635 27.2021 130.163 27.2021C128.691 27.2021 127.586 26.0944 127.586 24.6173C127.586 23.1403 128.813 22.0325 130.163 22.0325Z" fill="#FFCF2D"/>
<path d="M130.163 0.000290008C131.635 0.000289944 132.739 1.10806 132.739 2.5851C132.739 4.06214 131.635 5.16992 130.163 5.16992C128.691 5.16992 127.586 4.06214 127.586 2.5851C127.586 1.23114 128.813 0.000290067 130.163 0.000290008Z" fill="#FFCF2D"/>
</g>
<defs>
<clipPath id="clip0_2601_2509">
<rect width="181.184" height="132.739" fill="white" transform="translate(0 181.184) rotate(-90)"/>
</clipPath>
</defs>
</svg>
